%TF.GenerationSoftware,KiCad,Pcbnew,(6.0.9)*%
%TF.CreationDate,2023-01-17T11:35:58+02:00*%
%TF.ProjectId,rgb,7267622e-6b69-4636-9164-5f7063625858,rev?*%
%TF.SameCoordinates,Original*%
%TF.FileFunction,Copper,L1,Top*%
%TF.FilePolarity,Positive*%
%FSLAX46Y46*%
G04 Gerber Fmt 4.6, Leading zero omitted, Abs format (unit mm)*
G04 Created by KiCad (PCBNEW (6.0.9)) date 2023-01-17 11:35:58*
%MOMM*%
%LPD*%
G01*
G04 APERTURE LIST*
G04 Aperture macros list*
%AMRoundRect*
0 Rectangle with rounded corners*
0 $1 Rounding radius*
0 $2 $3 $4 $5 $6 $7 $8 $9 X,Y pos of 4 corners*
0 Add a 4 corners polygon primitive as box body*
4,1,4,$2,$3,$4,$5,$6,$7,$8,$9,$2,$3,0*
0 Add four circle primitives for the rounded corners*
1,1,$1+$1,$2,$3*
1,1,$1+$1,$4,$5*
1,1,$1+$1,$6,$7*
1,1,$1+$1,$8,$9*
0 Add four rect primitives between the rounded corners*
20,1,$1+$1,$2,$3,$4,$5,0*
20,1,$1+$1,$4,$5,$6,$7,0*
20,1,$1+$1,$6,$7,$8,$9,0*
20,1,$1+$1,$8,$9,$2,$3,0*%
G04 Aperture macros list end*
%TA.AperFunction,SMDPad,CuDef*%
%ADD10R,1.400000X2.600000*%
%TD*%
%TA.AperFunction,SMDPad,CuDef*%
%ADD11R,0.500000X0.500000*%
%TD*%
%TA.AperFunction,SMDPad,CuDef*%
%ADD12RoundRect,0.140000X0.170000X-0.140000X0.170000X0.140000X-0.170000X0.140000X-0.170000X-0.140000X0*%
%TD*%
%TA.AperFunction,ViaPad*%
%ADD13C,0.800000*%
%TD*%
%TA.AperFunction,Conductor*%
%ADD14C,0.250000*%
%TD*%
G04 APERTURE END LIST*
D10*
%TO.P,,*%
%TO.N,*%
X44058700Y-111412788D03*
%TD*%
D11*
%TO.P,,1,DOUT*%
%TO.N,unconnected-(D3-Pad1)*%
X70850000Y-108350000D03*
%TO.P,,2,VSS*%
%TO.N,GND*%
X69950000Y-108350000D03*
%TO.P,,3,DIN*%
%TO.N,Net-(D2-Pad1)*%
X69950000Y-109250000D03*
%TO.P,,4,VDD*%
%TO.N,+5V*%
X70850000Y-109250000D03*
%TD*%
D12*
%TO.P,,1*%
%TO.N,+5V*%
X75800000Y-109280000D03*
%TO.P,,2*%
%TO.N,GND*%
X75800000Y-108320000D03*
%TD*%
D10*
%TO.P,,*%
%TO.N,*%
X74248582Y-111316414D03*
%TD*%
D11*
%TO.P,,1,DOUT*%
%TO.N,Net-(D1-Pad1)*%
X48150000Y-108350000D03*
%TO.P,,2,VSS*%
%TO.N,GND*%
X47250000Y-108350000D03*
%TO.P,,3,DIN*%
%TO.N,Net-(D1-Pad3)*%
X47250000Y-109250000D03*
%TO.P,,4,VDD*%
%TO.N,+5V*%
X48150000Y-109250000D03*
%TD*%
%TO.P,,1,DOUT*%
%TO.N,Net-(D2-Pad1)*%
X59550000Y-108350000D03*
%TO.P,,2,VSS*%
%TO.N,GND*%
X58650000Y-108350000D03*
%TO.P,,3,DIN*%
%TO.N,Net-(D1-Pad1)*%
X58650000Y-109250000D03*
%TO.P,,4,VDD*%
%TO.N,+5V*%
X59550000Y-109250000D03*
%TD*%
D13*
%TO.N,+5V*%
X49750000Y-109250000D03*
X73350000Y-109250000D03*
X61950000Y-109250000D03*
%TO.N,GND*%
X68100000Y-108300000D03*
X74800000Y-108300000D03*
X57300000Y-108300000D03*
X44750000Y-108350000D03*
%TO.N,Net-(D1-Pad3)*%
X45900000Y-109300000D03*
%TD*%
D14*
%TO.N,+5V*%
X61950000Y-109250000D02*
X59550000Y-109250000D01*
X74750000Y-109250000D02*
X74750000Y-110550000D01*
X48250000Y-109250000D02*
X48200000Y-109200000D01*
X73350000Y-109250000D02*
X74750000Y-109250000D01*
X70850000Y-109250000D02*
X73350000Y-109250000D01*
X75770000Y-109250000D02*
X75800000Y-109280000D01*
X74750000Y-109250000D02*
X75770000Y-109250000D01*
X49750000Y-109250000D02*
X48250000Y-109250000D01*
%TO.N,GND*%
X43900000Y-108900000D02*
X43900000Y-111500000D01*
X69950000Y-108350000D02*
X68150000Y-108350000D01*
X57300000Y-108300000D02*
X58600000Y-108300000D01*
X44450000Y-108350000D02*
X43900000Y-108900000D01*
X47250000Y-108350000D02*
X44750000Y-108350000D01*
X68150000Y-108350000D02*
X68100000Y-108300000D01*
X44750000Y-108350000D02*
X44400000Y-108350000D01*
X74820000Y-108320000D02*
X74800000Y-108300000D01*
X75800000Y-108320000D02*
X74820000Y-108320000D01*
X58600000Y-108300000D02*
X58650000Y-108350000D01*
%TO.N,Net-(D1-Pad1)*%
X55700000Y-109300000D02*
X58600000Y-109300000D01*
X58600000Y-109300000D02*
X58650000Y-109250000D01*
X54700000Y-108300000D02*
X55700000Y-109300000D01*
X48150000Y-108350000D02*
X48200000Y-108300000D01*
X48200000Y-108300000D02*
X54700000Y-108300000D01*
%TO.N,Net-(D1-Pad3)*%
X45900000Y-109300000D02*
X47200000Y-109300000D01*
X47200000Y-109300000D02*
X47250000Y-109250000D01*
%TO.N,Net-(D2-Pad1)*%
X65400000Y-108300000D02*
X59600000Y-108300000D01*
X59600000Y-108300000D02*
X59550000Y-108350000D01*
X69950000Y-109250000D02*
X66350000Y-109250000D01*
X66350000Y-109250000D02*
X65400000Y-108300000D01*
%TD*%
M02*
