%TF.GenerationSoftware,KiCad,Pcbnew,(6.0.9)*%
%TF.CreationDate,2023-01-17T11:36:05+02:00*%
%TF.ProjectId,rgb,7267622e-6b69-4636-9164-5f7063625858,rev?*%
%TF.SameCoordinates,Original*%
%TF.FileFunction,Drillmap*%
%TF.FilePolarity,Positive*%
%FSLAX45Y45*%
G04 Gerber Fmt 4.5, Leading zero omitted, Abs format (unit mm)*
G04 Created by KiCad (PCBNEW (6.0.9)) date 2023-01-17 11:36:05*
%MOMM*%
%LPD*%
G01*
G04 APERTURE LIST*
%ADD10C,0.050000*%
%ADD11C,0.200000*%
%ADD12C,0.040000*%
G04 APERTURE END LIST*
D10*
X7350000Y-11280000D02*
X7500000Y-11280000D01*
X4480000Y-11000000D02*
X4480000Y-11280000D01*
X3980000Y-11000000D02*
X3980000Y-10850000D01*
X4090000Y-10850000D02*
X3980000Y-10850000D01*
X7500000Y-11280000D02*
X7500000Y-11000000D01*
X7850000Y-10850000D02*
X7850000Y-11000000D01*
X7850000Y-10850000D02*
X7700000Y-10850000D01*
X4480000Y-11280000D02*
X4330000Y-11280000D01*
X7700000Y-10770000D02*
X7700000Y-10850000D01*
X4480000Y-11000000D02*
X7350000Y-11000000D01*
X7500000Y-11000000D02*
X7850000Y-11000000D01*
X3980000Y-11000000D02*
X4330000Y-11000000D01*
X4090000Y-10850000D02*
X4090000Y-10770000D01*
X4330000Y-11280000D02*
X4330000Y-11000000D01*
X7350000Y-11280000D02*
X7350000Y-11000000D01*
X7700000Y-10770000D02*
X4090000Y-10770000D01*
D11*
D12*
X4455000Y-10815000D02*
X4495000Y-10855000D01*
X4495000Y-10815000D02*
X4455000Y-10855000D01*
X4570000Y-10910000D02*
X4610000Y-10950000D01*
X4610000Y-10910000D02*
X4570000Y-10950000D01*
X4955000Y-10905000D02*
X4995000Y-10945000D01*
X4995000Y-10905000D02*
X4955000Y-10945000D01*
X5710000Y-10810000D02*
X5750000Y-10850000D01*
X5750000Y-10810000D02*
X5710000Y-10850000D01*
X6175000Y-10905000D02*
X6215000Y-10945000D01*
X6215000Y-10905000D02*
X6175000Y-10945000D01*
X6790000Y-10810000D02*
X6830000Y-10850000D01*
X6830000Y-10810000D02*
X6790000Y-10850000D01*
X7315000Y-10905000D02*
X7355000Y-10945000D01*
X7355000Y-10905000D02*
X7315000Y-10945000D01*
X7460000Y-10810000D02*
X7500000Y-10850000D01*
X7500000Y-10810000D02*
X7460000Y-10850000D01*
D11*
X4235119Y-11592976D02*
X4235119Y-11392976D01*
X4282738Y-11392976D01*
X4311310Y-11402500D01*
X4330357Y-11421548D01*
X4339881Y-11440595D01*
X4349405Y-11478690D01*
X4349405Y-11507262D01*
X4339881Y-11545357D01*
X4330357Y-11564405D01*
X4311310Y-11583452D01*
X4282738Y-11592976D01*
X4235119Y-11592976D01*
X4435119Y-11592976D02*
X4435119Y-11459643D01*
X4435119Y-11497738D02*
X4444643Y-11478690D01*
X4454167Y-11469167D01*
X4473214Y-11459643D01*
X4492262Y-11459643D01*
X4558929Y-11592976D02*
X4558929Y-11459643D01*
X4558929Y-11392976D02*
X4549405Y-11402500D01*
X4558929Y-11412024D01*
X4568452Y-11402500D01*
X4558929Y-11392976D01*
X4558929Y-11412024D01*
X4682738Y-11592976D02*
X4663690Y-11583452D01*
X4654167Y-11564405D01*
X4654167Y-11392976D01*
X4787500Y-11592976D02*
X4768452Y-11583452D01*
X4758929Y-11564405D01*
X4758929Y-11392976D01*
X5016071Y-11592976D02*
X5016071Y-11392976D01*
X5082738Y-11535833D01*
X5149405Y-11392976D01*
X5149405Y-11592976D01*
X5330357Y-11592976D02*
X5330357Y-11488214D01*
X5320833Y-11469167D01*
X5301786Y-11459643D01*
X5263690Y-11459643D01*
X5244643Y-11469167D01*
X5330357Y-11583452D02*
X5311310Y-11592976D01*
X5263690Y-11592976D01*
X5244643Y-11583452D01*
X5235119Y-11564405D01*
X5235119Y-11545357D01*
X5244643Y-11526309D01*
X5263690Y-11516786D01*
X5311310Y-11516786D01*
X5330357Y-11507262D01*
X5425595Y-11459643D02*
X5425595Y-11659643D01*
X5425595Y-11469167D02*
X5444643Y-11459643D01*
X5482738Y-11459643D01*
X5501786Y-11469167D01*
X5511310Y-11478690D01*
X5520833Y-11497738D01*
X5520833Y-11554881D01*
X5511310Y-11573928D01*
X5501786Y-11583452D01*
X5482738Y-11592976D01*
X5444643Y-11592976D01*
X5425595Y-11583452D01*
X5606548Y-11573928D02*
X5616071Y-11583452D01*
X5606548Y-11592976D01*
X5597024Y-11583452D01*
X5606548Y-11573928D01*
X5606548Y-11592976D01*
X5606548Y-11469167D02*
X5616071Y-11478690D01*
X5606548Y-11488214D01*
X5597024Y-11478690D01*
X5606548Y-11469167D01*
X5606548Y-11488214D01*
D12*
X3937500Y-11902500D02*
X3977500Y-11942500D01*
X3977500Y-11902500D02*
X3937500Y-11942500D01*
D11*
X4273214Y-11812976D02*
X4292262Y-11812976D01*
X4311310Y-11822500D01*
X4320833Y-11832024D01*
X4330357Y-11851071D01*
X4339881Y-11889167D01*
X4339881Y-11936786D01*
X4330357Y-11974881D01*
X4320833Y-11993928D01*
X4311310Y-12003452D01*
X4292262Y-12012976D01*
X4273214Y-12012976D01*
X4254167Y-12003452D01*
X4244643Y-11993928D01*
X4235119Y-11974881D01*
X4225595Y-11936786D01*
X4225595Y-11889167D01*
X4235119Y-11851071D01*
X4244643Y-11832024D01*
X4254167Y-11822500D01*
X4273214Y-11812976D01*
X4425595Y-11993928D02*
X4435119Y-12003452D01*
X4425595Y-12012976D01*
X4416071Y-12003452D01*
X4425595Y-11993928D01*
X4425595Y-12012976D01*
X4606548Y-11879643D02*
X4606548Y-12012976D01*
X4558929Y-11803452D02*
X4511310Y-11946309D01*
X4635119Y-11946309D01*
X4749405Y-11812976D02*
X4768452Y-11812976D01*
X4787500Y-11822500D01*
X4797024Y-11832024D01*
X4806548Y-11851071D01*
X4816071Y-11889167D01*
X4816071Y-11936786D01*
X4806548Y-11974881D01*
X4797024Y-11993928D01*
X4787500Y-12003452D01*
X4768452Y-12012976D01*
X4749405Y-12012976D01*
X4730357Y-12003452D01*
X4720833Y-11993928D01*
X4711310Y-11974881D01*
X4701786Y-11936786D01*
X4701786Y-11889167D01*
X4711310Y-11851071D01*
X4720833Y-11832024D01*
X4730357Y-11822500D01*
X4749405Y-11812976D01*
X4939881Y-11812976D02*
X4958929Y-11812976D01*
X4977976Y-11822500D01*
X4987500Y-11832024D01*
X4997024Y-11851071D01*
X5006548Y-11889167D01*
X5006548Y-11936786D01*
X4997024Y-11974881D01*
X4987500Y-11993928D01*
X4977976Y-12003452D01*
X4958929Y-12012976D01*
X4939881Y-12012976D01*
X4920833Y-12003452D01*
X4911310Y-11993928D01*
X4901786Y-11974881D01*
X4892262Y-11936786D01*
X4892262Y-11889167D01*
X4901786Y-11851071D01*
X4911310Y-11832024D01*
X4920833Y-11822500D01*
X4939881Y-11812976D01*
X5092262Y-12012976D02*
X5092262Y-11879643D01*
X5092262Y-11898690D02*
X5101786Y-11889167D01*
X5120833Y-11879643D01*
X5149405Y-11879643D01*
X5168452Y-11889167D01*
X5177976Y-11908214D01*
X5177976Y-12012976D01*
X5177976Y-11908214D02*
X5187500Y-11889167D01*
X5206548Y-11879643D01*
X5235119Y-11879643D01*
X5254167Y-11889167D01*
X5263690Y-11908214D01*
X5263690Y-12012976D01*
X5358929Y-12012976D02*
X5358929Y-11879643D01*
X5358929Y-11898690D02*
X5368452Y-11889167D01*
X5387500Y-11879643D01*
X5416071Y-11879643D01*
X5435119Y-11889167D01*
X5444643Y-11908214D01*
X5444643Y-12012976D01*
X5444643Y-11908214D02*
X5454167Y-11889167D01*
X5473214Y-11879643D01*
X5501786Y-11879643D01*
X5520833Y-11889167D01*
X5530357Y-11908214D01*
X5530357Y-12012976D01*
X5920833Y-11803452D02*
X5749405Y-12060595D01*
X6177976Y-11812976D02*
X6197024Y-11812976D01*
X6216071Y-11822500D01*
X6225595Y-11832024D01*
X6235119Y-11851071D01*
X6244643Y-11889167D01*
X6244643Y-11936786D01*
X6235119Y-11974881D01*
X6225595Y-11993928D01*
X6216071Y-12003452D01*
X6197024Y-12012976D01*
X6177976Y-12012976D01*
X6158928Y-12003452D01*
X6149405Y-11993928D01*
X6139881Y-11974881D01*
X6130357Y-11936786D01*
X6130357Y-11889167D01*
X6139881Y-11851071D01*
X6149405Y-11832024D01*
X6158928Y-11822500D01*
X6177976Y-11812976D01*
X6330357Y-11993928D02*
X6339881Y-12003452D01*
X6330357Y-12012976D01*
X6320833Y-12003452D01*
X6330357Y-11993928D01*
X6330357Y-12012976D01*
X6463690Y-11812976D02*
X6482738Y-11812976D01*
X6501786Y-11822500D01*
X6511309Y-11832024D01*
X6520833Y-11851071D01*
X6530357Y-11889167D01*
X6530357Y-11936786D01*
X6520833Y-11974881D01*
X6511309Y-11993928D01*
X6501786Y-12003452D01*
X6482738Y-12012976D01*
X6463690Y-12012976D01*
X6444643Y-12003452D01*
X6435119Y-11993928D01*
X6425595Y-11974881D01*
X6416071Y-11936786D01*
X6416071Y-11889167D01*
X6425595Y-11851071D01*
X6435119Y-11832024D01*
X6444643Y-11822500D01*
X6463690Y-11812976D01*
X6720833Y-12012976D02*
X6606548Y-12012976D01*
X6663690Y-12012976D02*
X6663690Y-11812976D01*
X6644643Y-11841548D01*
X6625595Y-11860595D01*
X6606548Y-11870119D01*
X6901786Y-11812976D02*
X6806548Y-11812976D01*
X6797024Y-11908214D01*
X6806548Y-11898690D01*
X6825595Y-11889167D01*
X6873214Y-11889167D01*
X6892262Y-11898690D01*
X6901786Y-11908214D01*
X6911309Y-11927262D01*
X6911309Y-11974881D01*
X6901786Y-11993928D01*
X6892262Y-12003452D01*
X6873214Y-12012976D01*
X6825595Y-12012976D01*
X6806548Y-12003452D01*
X6797024Y-11993928D01*
X6977976Y-11812976D02*
X7111309Y-11812976D01*
X7025595Y-12012976D01*
X7177976Y-11812976D02*
X7177976Y-11851071D01*
X7254167Y-11812976D02*
X7254167Y-11851071D01*
X7549405Y-12089167D02*
X7539881Y-12079643D01*
X7520833Y-12051071D01*
X7511309Y-12032024D01*
X7501786Y-12003452D01*
X7492262Y-11955833D01*
X7492262Y-11917738D01*
X7501786Y-11870119D01*
X7511309Y-11841548D01*
X7520833Y-11822500D01*
X7539881Y-11793928D01*
X7549405Y-11784405D01*
X7654167Y-11898690D02*
X7635119Y-11889167D01*
X7625595Y-11879643D01*
X7616071Y-11860595D01*
X7616071Y-11851071D01*
X7625595Y-11832024D01*
X7635119Y-11822500D01*
X7654167Y-11812976D01*
X7692262Y-11812976D01*
X7711309Y-11822500D01*
X7720833Y-11832024D01*
X7730357Y-11851071D01*
X7730357Y-11860595D01*
X7720833Y-11879643D01*
X7711309Y-11889167D01*
X7692262Y-11898690D01*
X7654167Y-11898690D01*
X7635119Y-11908214D01*
X7625595Y-11917738D01*
X7616071Y-11936786D01*
X7616071Y-11974881D01*
X7625595Y-11993928D01*
X7635119Y-12003452D01*
X7654167Y-12012976D01*
X7692262Y-12012976D01*
X7711309Y-12003452D01*
X7720833Y-11993928D01*
X7730357Y-11974881D01*
X7730357Y-11936786D01*
X7720833Y-11917738D01*
X7711309Y-11908214D01*
X7692262Y-11898690D01*
X7968452Y-12012976D02*
X7968452Y-11812976D01*
X8054167Y-12012976D02*
X8054167Y-11908214D01*
X8044643Y-11889167D01*
X8025595Y-11879643D01*
X7997024Y-11879643D01*
X7977976Y-11889167D01*
X7968452Y-11898690D01*
X8177976Y-12012976D02*
X8158928Y-12003452D01*
X8149405Y-11993928D01*
X8139881Y-11974881D01*
X8139881Y-11917738D01*
X8149405Y-11898690D01*
X8158928Y-11889167D01*
X8177976Y-11879643D01*
X8206548Y-11879643D01*
X8225595Y-11889167D01*
X8235119Y-11898690D01*
X8244643Y-11917738D01*
X8244643Y-11974881D01*
X8235119Y-11993928D01*
X8225595Y-12003452D01*
X8206548Y-12012976D01*
X8177976Y-12012976D01*
X8358928Y-12012976D02*
X8339881Y-12003452D01*
X8330357Y-11984405D01*
X8330357Y-11812976D01*
X8511310Y-12003452D02*
X8492262Y-12012976D01*
X8454167Y-12012976D01*
X8435119Y-12003452D01*
X8425595Y-11984405D01*
X8425595Y-11908214D01*
X8435119Y-11889167D01*
X8454167Y-11879643D01*
X8492262Y-11879643D01*
X8511310Y-11889167D01*
X8520833Y-11908214D01*
X8520833Y-11927262D01*
X8425595Y-11946309D01*
X8597024Y-12003452D02*
X8616071Y-12012976D01*
X8654167Y-12012976D01*
X8673214Y-12003452D01*
X8682738Y-11984405D01*
X8682738Y-11974881D01*
X8673214Y-11955833D01*
X8654167Y-11946309D01*
X8625595Y-11946309D01*
X8606548Y-11936786D01*
X8597024Y-11917738D01*
X8597024Y-11908214D01*
X8606548Y-11889167D01*
X8625595Y-11879643D01*
X8654167Y-11879643D01*
X8673214Y-11889167D01*
X8749405Y-12089167D02*
X8758929Y-12079643D01*
X8777976Y-12051071D01*
X8787500Y-12032024D01*
X8797024Y-12003452D01*
X8806548Y-11955833D01*
X8806548Y-11917738D01*
X8797024Y-11870119D01*
X8787500Y-11841548D01*
X8777976Y-11822500D01*
X8758929Y-11793928D01*
X8749405Y-11784405D01*
M02*
