%TF.GenerationSoftware,KiCad,Pcbnew,(6.0.9)*%
%TF.CreationDate,2023-01-17T11:35:58+02:00*%
%TF.ProjectId,rgb,7267622e-6b69-4636-9164-5f7063625858,rev?*%
%TF.SameCoordinates,Original*%
%TF.FileFunction,Legend,Top*%
%TF.FilePolarity,Positive*%
%FSLAX46Y46*%
G04 Gerber Fmt 4.6, Leading zero omitted, Abs format (unit mm)*
G04 Created by KiCad (PCBNEW (6.0.9)) date 2023-01-17 11:35:58*
%MOMM*%
%LPD*%
G01*
G04 APERTURE LIST*
%ADD10C,0.120000*%
%ADD11C,0.150000*%
%ADD12C,0.075000*%
%ADD13C,0.100000*%
G04 APERTURE END LIST*
D10*
X52200000Y-109900000D02*
X52200000Y-107800000D01*
X66900000Y-109900000D02*
X66900000Y-107800000D01*
X55500000Y-109900000D02*
X55500000Y-107800000D01*
X63600000Y-107800000D02*
X63600000Y-109900000D01*
X57800000Y-109900000D02*
X57800000Y-107800000D01*
X74300000Y-109900000D02*
X74300000Y-107800000D01*
X46400000Y-109900000D02*
X46400000Y-107800000D01*
X49000000Y-109900000D02*
X49000000Y-107800000D01*
X60400000Y-109900000D02*
X60400000Y-107800000D01*
X71700000Y-109900000D02*
X71700000Y-107800000D01*
X69100000Y-109900000D02*
X69100000Y-107800000D01*
D11*
X76819047Y-109271428D02*
X77580952Y-109271428D01*
X77200000Y-109652380D02*
X77200000Y-108890476D01*
X42080952Y-109271428D02*
X41319047Y-109271428D01*
%TO.C,*%
D12*
X70985714Y-107789285D02*
X70985714Y-107960714D01*
X70985714Y-107875000D02*
X70685714Y-107875000D01*
X70728571Y-107903571D01*
X70757142Y-107932142D01*
X70771428Y-107960714D01*
D11*
D12*
X48285714Y-107789285D02*
X48285714Y-107960714D01*
X48285714Y-107875000D02*
X47985714Y-107875000D01*
X48028571Y-107903571D01*
X48057142Y-107932142D01*
X48071428Y-107960714D01*
D11*
D12*
X59685714Y-107789285D02*
X59685714Y-107960714D01*
X59685714Y-107875000D02*
X59385714Y-107875000D01*
X59428571Y-107903571D01*
X59457142Y-107932142D01*
X59471428Y-107960714D01*
D13*
X71250000Y-109650000D02*
X71250000Y-109000000D01*
X70600000Y-109650000D02*
X71250000Y-109650000D01*
D10*
X76160000Y-108907836D02*
X76160000Y-108692164D01*
X75440000Y-108907836D02*
X75440000Y-108692164D01*
D13*
X47900000Y-109650000D02*
X48550000Y-109650000D01*
X48550000Y-109650000D02*
X48550000Y-109000000D01*
X59300000Y-109650000D02*
X59950000Y-109650000D01*
X59950000Y-109650000D02*
X59950000Y-109000000D01*
%TD*%
M02*
